<svg xmlns="http://www.w3.org/2000/svg" xmlns:xlink="http://www.w3.org/1999/xlink" width="1920" zoomAndPan="magnify" viewBox="0 0 1440 36.000001" height="48" preserveAspectRatio="xMidYMid meet" version="1.0"><defs><clipPath id="aece2f9340"><path d="M 19.460938 0 L 36.742188 0 L 36.742188 17.285156 L 19.460938 17.285156 Z M 19.460938 0 " clip-rule="nonzero"/></clipPath><clipPath id="0a4c3a192c"><path d="M 36.742188 17.285156 L 54.027344 17.285156 L 54.027344 34.566406 L 36.742188 34.566406 Z M 36.742188 17.285156 " clip-rule="nonzero"/></clipPath><clipPath id="74eea10de8"><path d="M 54.027344 0 L 71.3125 0 L 71.3125 17.285156 L 54.027344 17.285156 Z M 54.027344 0 " clip-rule="nonzero"/></clipPath><clipPath id="d118362eaf"><path d="M 71.3125 17.285156 L 88.59375 17.285156 L 88.59375 34.566406 L 71.3125 34.566406 Z M 71.3125 17.285156 " clip-rule="nonzero"/></clipPath><clipPath id="a0bcc54a05"><path d="M 88.59375 0 L 105.878906 0 L 105.878906 17.285156 L 88.59375 17.285156 Z M 88.59375 0 " clip-rule="nonzero"/></clipPath><clipPath id="617d2f0079"><path d="M 105.878906 17.285156 L 123.164062 17.285156 L 123.164062 34.566406 L 105.878906 34.566406 Z M 105.878906 17.285156 " clip-rule="nonzero"/></clipPath><clipPath id="64aca564da"><path d="M 123.164062 0 L 140.445312 0 L 140.445312 17.285156 L 123.164062 17.285156 Z M 123.164062 0 " clip-rule="nonzero"/></clipPath><clipPath id="15be546209"><path d="M 140.445312 17.285156 L 157.730469 17.285156 L 157.730469 34.566406 L 140.445312 34.566406 Z M 140.445312 17.285156 " clip-rule="nonzero"/></clipPath><clipPath id="765967b7be"><path d="M 157.730469 0 L 175.011719 0 L 175.011719 17.285156 L 157.730469 17.285156 Z M 157.730469 0 " clip-rule="nonzero"/></clipPath><clipPath id="8b29670878"><path d="M 175.011719 17.285156 L 192.296875 17.285156 L 192.296875 34.566406 L 175.011719 34.566406 Z M 175.011719 17.285156 " clip-rule="nonzero"/></clipPath><clipPath id="491ad07be8"><path d="M 192.296875 0 L 209.582031 0 L 209.582031 17.285156 L 192.296875 17.285156 Z M 192.296875 0 " clip-rule="nonzero"/></clipPath><clipPath id="2124f23a60"><path d="M 209.582031 17.285156 L 226.863281 17.285156 L 226.863281 34.566406 L 209.582031 34.566406 Z M 209.582031 17.285156 " clip-rule="nonzero"/></clipPath><clipPath id="75f440df2f"><path d="M 226.863281 0 L 244.148438 0 L 244.148438 17.285156 L 226.863281 17.285156 Z M 226.863281 0 " clip-rule="nonzero"/></clipPath><clipPath id="6c3bc643c4"><path d="M 244.148438 17.285156 L 261.433594 17.285156 L 261.433594 34.566406 L 244.148438 34.566406 Z M 244.148438 17.285156 " clip-rule="nonzero"/></clipPath><clipPath id="a88cdf2fb8"><path d="M 261.433594 0 L 278.714844 0 L 278.714844 17.285156 L 261.433594 17.285156 Z M 261.433594 0 " clip-rule="nonzero"/></clipPath><clipPath id="3793bfcbcd"><path d="M 278.714844 17.285156 L 296 17.285156 L 296 34.566406 L 278.714844 34.566406 Z M 278.714844 17.285156 " clip-rule="nonzero"/></clipPath><clipPath id="2fdf850106"><path d="M 296 0 L 313.285156 0 L 313.285156 17.285156 L 296 17.285156 Z M 296 0 " clip-rule="nonzero"/></clipPath><clipPath id="b6fd58c25b"><path d="M 313.285156 17.285156 L 330.566406 17.285156 L 330.566406 34.566406 L 313.285156 34.566406 Z M 313.285156 17.285156 " clip-rule="nonzero"/></clipPath><clipPath id="0a061e51f8"><path d="M 330.566406 0 L 347.851562 0 L 347.851562 17.285156 L 330.566406 17.285156 Z M 330.566406 0 " clip-rule="nonzero"/></clipPath><clipPath id="84be119ffa"><path d="M 347.851562 17.285156 L 365.136719 17.285156 L 365.136719 34.566406 L 347.851562 34.566406 Z M 347.851562 17.285156 " clip-rule="nonzero"/></clipPath><clipPath id="bdd3110166"><path d="M 365.136719 0 L 382.417969 0 L 382.417969 17.285156 L 365.136719 17.285156 Z M 365.136719 0 " clip-rule="nonzero"/></clipPath><clipPath id="4073abc04d"><path d="M 382.417969 17.285156 L 399.703125 17.285156 L 399.703125 34.566406 L 382.417969 34.566406 Z M 382.417969 17.285156 " clip-rule="nonzero"/></clipPath><clipPath id="13fcdf314e"><path d="M 399.703125 0 L 416.988281 0 L 416.988281 17.285156 L 399.703125 17.285156 Z M 399.703125 0 " clip-rule="nonzero"/></clipPath><clipPath id="922e0b14d1"><path d="M 416.988281 17.285156 L 434.269531 17.285156 L 434.269531 34.566406 L 416.988281 34.566406 Z M 416.988281 17.285156 " clip-rule="nonzero"/></clipPath><clipPath id="f81c7bfe7c"><path d="M 434.269531 0 L 451.554688 0 L 451.554688 17.285156 L 434.269531 17.285156 Z M 434.269531 0 " clip-rule="nonzero"/></clipPath><clipPath id="62bf1c9231"><path d="M 451.554688 17.285156 L 468.839844 17.285156 L 468.839844 34.566406 L 451.554688 34.566406 Z M 451.554688 17.285156 " clip-rule="nonzero"/></clipPath><clipPath id="2b09bfb3ff"><path d="M 468.839844 0 L 486.121094 0 L 486.121094 17.285156 L 468.839844 17.285156 Z M 468.839844 0 " clip-rule="nonzero"/></clipPath><clipPath id="199ec4af81"><path d="M 572.289062 0 L 589.574219 0 L 589.574219 17.285156 L 572.289062 17.285156 Z M 572.289062 0 " clip-rule="nonzero"/></clipPath><clipPath id="c93dbfbb53"><path d="M 486.121094 17.285156 L 503.40625 17.285156 L 503.40625 34.566406 L 486.121094 34.566406 Z M 486.121094 17.285156 " clip-rule="nonzero"/></clipPath><clipPath id="a68268b397"><path d="M 589.574219 17.285156 L 606.855469 17.285156 L 606.855469 34.566406 L 589.574219 34.566406 Z M 589.574219 17.285156 " clip-rule="nonzero"/></clipPath><clipPath id="4d6eecc53c"><path d="M 503.40625 0 L 520.691406 0 L 520.691406 17.285156 L 503.40625 17.285156 Z M 503.40625 0 " clip-rule="nonzero"/></clipPath><clipPath id="6c0e1b0489"><path d="M 606.855469 0 L 624.140625 0 L 624.140625 17.285156 L 606.855469 17.285156 Z M 606.855469 0 " clip-rule="nonzero"/></clipPath><clipPath id="09c3673345"><path d="M 675.738281 0 L 693.023438 0 L 693.023438 17.285156 L 675.738281 17.285156 Z M 675.738281 0 " clip-rule="nonzero"/></clipPath><clipPath id="173802dcb6"><path d="M 520.691406 17.285156 L 537.972656 17.285156 L 537.972656 34.566406 L 520.691406 34.566406 Z M 520.691406 17.285156 " clip-rule="nonzero"/></clipPath><clipPath id="00e19dce57"><path d="M 624.140625 17.285156 L 641.425781 17.285156 L 641.425781 34.566406 L 624.140625 34.566406 Z M 624.140625 17.285156 " clip-rule="nonzero"/></clipPath><clipPath id="71a662b8a7"><path d="M 693.023438 17.285156 L 710.308594 17.285156 L 710.308594 34.566406 L 693.023438 34.566406 Z M 693.023438 17.285156 " clip-rule="nonzero"/></clipPath><clipPath id="a18c019e11"><path d="M 537.972656 0 L 555.257812 0 L 555.257812 17.285156 L 537.972656 17.285156 Z M 537.972656 0 " clip-rule="nonzero"/></clipPath><clipPath id="4eca209e0e"><path d="M 641.425781 0 L 658.707031 0 L 658.707031 17.285156 L 641.425781 17.285156 Z M 641.425781 0 " clip-rule="nonzero"/></clipPath><clipPath id="5fbcdfc3d8"><path d="M 710.308594 0 L 727.589844 0 L 727.589844 17.285156 L 710.308594 17.285156 Z M 710.308594 0 " clip-rule="nonzero"/></clipPath><clipPath id="79b6d271bd"><path d="M 555.257812 17.285156 L 572.539062 17.285156 L 572.539062 34.566406 L 555.257812 34.566406 Z M 555.257812 17.285156 " clip-rule="nonzero"/></clipPath><clipPath id="4352142532"><path d="M 658.707031 17.285156 L 675.992188 17.285156 L 675.992188 34.566406 L 658.707031 34.566406 Z M 658.707031 17.285156 " clip-rule="nonzero"/></clipPath><clipPath id="b271501676"><path d="M 712.410156 0 L 729.691406 0 L 729.691406 17.285156 L 712.410156 17.285156 Z M 712.410156 0 " clip-rule="nonzero"/></clipPath><clipPath id="1abed1818a"><path d="M 729.691406 17.285156 L 746.976562 17.285156 L 746.976562 34.566406 L 729.691406 34.566406 Z M 729.691406 17.285156 " clip-rule="nonzero"/></clipPath><clipPath id="88d26b0d03"><path d="M 746.976562 0 L 764.261719 0 L 764.261719 17.285156 L 746.976562 17.285156 Z M 746.976562 0 " clip-rule="nonzero"/></clipPath><clipPath id="9565024c27"><path d="M 764.261719 17.285156 L 781.542969 17.285156 L 781.542969 34.566406 L 764.261719 34.566406 Z M 764.261719 17.285156 " clip-rule="nonzero"/></clipPath><clipPath id="6f150ebbd1"><path d="M 781.542969 0 L 798.828125 0 L 798.828125 17.285156 L 781.542969 17.285156 Z M 781.542969 0 " clip-rule="nonzero"/></clipPath><clipPath id="dad3979bf0"><path d="M 798.828125 17.285156 L 816.113281 17.285156 L 816.113281 34.566406 L 798.828125 34.566406 Z M 798.828125 17.285156 " clip-rule="nonzero"/></clipPath><clipPath id="4dfd8b9e85"><path d="M 816.109375 0 L 833.394531 0 L 833.394531 17.285156 L 816.109375 17.285156 Z M 816.109375 0 " clip-rule="nonzero"/></clipPath><clipPath id="d4ce10aa06"><path d="M 833.394531 17.285156 L 850.679688 17.285156 L 850.679688 34.566406 L 833.394531 34.566406 Z M 833.394531 17.285156 " clip-rule="nonzero"/></clipPath><clipPath id="5333dffe84"><path d="M 850.679688 0 L 867.960938 0 L 867.960938 17.285156 L 850.679688 17.285156 Z M 850.679688 0 " clip-rule="nonzero"/></clipPath><clipPath id="c01ace12f6"><path d="M 867.960938 17.285156 L 885.246094 17.285156 L 885.246094 34.566406 L 867.960938 34.566406 Z M 867.960938 17.285156 " clip-rule="nonzero"/></clipPath><clipPath id="d087a69136"><path d="M 885.246094 0 L 902.53125 0 L 902.53125 17.285156 L 885.246094 17.285156 Z M 885.246094 0 " clip-rule="nonzero"/></clipPath><clipPath id="f6945ff4b3"><path d="M 902.53125 17.285156 L 919.8125 17.285156 L 919.8125 34.566406 L 902.53125 34.566406 Z M 902.53125 17.285156 " clip-rule="nonzero"/></clipPath><clipPath id="2379b42074"><path d="M 919.8125 0 L 937.097656 0 L 937.097656 17.285156 L 919.8125 17.285156 Z M 919.8125 0 " clip-rule="nonzero"/></clipPath><clipPath id="363ca7a8df"><path d="M 937.097656 17.285156 L 954.382812 17.285156 L 954.382812 34.566406 L 937.097656 34.566406 Z M 937.097656 17.285156 " clip-rule="nonzero"/></clipPath><clipPath id="5bc3e99287"><path d="M 954.382812 0 L 971.664062 0 L 971.664062 17.285156 L 954.382812 17.285156 Z M 954.382812 0 " clip-rule="nonzero"/></clipPath><clipPath id="40baebd307"><path d="M 971.664062 17.285156 L 988.949219 17.285156 L 988.949219 34.566406 L 971.664062 34.566406 Z M 971.664062 17.285156 " clip-rule="nonzero"/></clipPath><clipPath id="66b821326d"><path d="M 988.949219 0 L 1006.234375 0 L 1006.234375 17.285156 L 988.949219 17.285156 Z M 988.949219 0 " clip-rule="nonzero"/></clipPath><clipPath id="79132c84f1"><path d="M 1006.234375 17.285156 L 1023.515625 17.285156 L 1023.515625 34.566406 L 1006.234375 34.566406 Z M 1006.234375 17.285156 " clip-rule="nonzero"/></clipPath><clipPath id="59bb09401d"><path d="M 1023.515625 0 L 1040.800781 0 L 1040.800781 17.285156 L 1023.515625 17.285156 Z M 1023.515625 0 " clip-rule="nonzero"/></clipPath><clipPath id="8c23aa2513"><path d="M 1040.800781 17.285156 L 1058.085938 17.285156 L 1058.085938 34.566406 L 1040.800781 34.566406 Z M 1040.800781 17.285156 " clip-rule="nonzero"/></clipPath><clipPath id="61b47f73db"><path d="M 1058.085938 0 L 1075.367188 0 L 1075.367188 17.285156 L 1058.085938 17.285156 Z M 1058.085938 0 " clip-rule="nonzero"/></clipPath><clipPath id="816ab45da7"><path d="M 1075.367188 17.285156 L 1092.652344 17.285156 L 1092.652344 34.566406 L 1075.367188 34.566406 Z M 1075.367188 17.285156 " clip-rule="nonzero"/></clipPath><clipPath id="85568e6ecb"><path d="M 1092.652344 0 L 1109.9375 0 L 1109.9375 17.285156 L 1092.652344 17.285156 Z M 1092.652344 0 " clip-rule="nonzero"/></clipPath><clipPath id="3d1466d507"><path d="M 1109.9375 17.285156 L 1127.21875 17.285156 L 1127.21875 34.566406 L 1109.9375 34.566406 Z M 1109.9375 17.285156 " clip-rule="nonzero"/></clipPath><clipPath id="49803e9f5e"><path d="M 1127.21875 0 L 1144.503906 0 L 1144.503906 17.285156 L 1127.21875 17.285156 Z M 1127.21875 0 " clip-rule="nonzero"/></clipPath><clipPath id="01a4e53dbd"><path d="M 1144.503906 17.285156 L 1161.789062 17.285156 L 1161.789062 34.566406 L 1144.503906 34.566406 Z M 1144.503906 17.285156 " clip-rule="nonzero"/></clipPath><clipPath id="d1be6dc288"><path d="M 1161.789062 0 L 1179.070312 0 L 1179.070312 17.285156 L 1161.789062 17.285156 Z M 1161.789062 0 " clip-rule="nonzero"/></clipPath><clipPath id="19c52f9a38"><path d="M 1265.238281 0 L 1282.523438 0 L 1282.523438 17.285156 L 1265.238281 17.285156 Z M 1265.238281 0 " clip-rule="nonzero"/></clipPath><clipPath id="39cbdb30e5"><path d="M 1179.070312 17.285156 L 1196.355469 17.285156 L 1196.355469 34.566406 L 1179.070312 34.566406 Z M 1179.070312 17.285156 " clip-rule="nonzero"/></clipPath><clipPath id="2d935e6e36"><path d="M 1282.523438 17.285156 L 1299.804688 17.285156 L 1299.804688 34.566406 L 1282.523438 34.566406 Z M 1282.523438 17.285156 " clip-rule="nonzero"/></clipPath><clipPath id="6fe2dd2702"><path d="M 1196.355469 0 L 1213.636719 0 L 1213.636719 17.285156 L 1196.355469 17.285156 Z M 1196.355469 0 " clip-rule="nonzero"/></clipPath><clipPath id="88483721f9"><path d="M 1299.804688 0 L 1317.089844 0 L 1317.089844 17.285156 L 1299.804688 17.285156 Z M 1299.804688 0 " clip-rule="nonzero"/></clipPath><clipPath id="63cace951d"><path d="M 1368.6875 0 L 1385.972656 0 L 1385.972656 17.285156 L 1368.6875 17.285156 Z M 1368.6875 0 " clip-rule="nonzero"/></clipPath><clipPath id="44fb112db5"><path d="M 1213.636719 17.285156 L 1230.921875 17.285156 L 1230.921875 34.566406 L 1213.636719 34.566406 Z M 1213.636719 17.285156 " clip-rule="nonzero"/></clipPath><clipPath id="54560602ee"><path d="M 1317.089844 17.285156 L 1334.375 17.285156 L 1334.375 34.566406 L 1317.089844 34.566406 Z M 1317.089844 17.285156 " clip-rule="nonzero"/></clipPath><clipPath id="4ca98c85ed"><path d="M 1385.972656 17.285156 L 1403.257812 17.285156 L 1403.257812 34.566406 L 1385.972656 34.566406 Z M 1385.972656 17.285156 " clip-rule="nonzero"/></clipPath><clipPath id="7f262c8fe3"><path d="M 1230.921875 0 L 1248.207031 0 L 1248.207031 17.285156 L 1230.921875 17.285156 Z M 1230.921875 0 " clip-rule="nonzero"/></clipPath><clipPath id="eb803a0d8f"><path d="M 1334.375 0 L 1351.65625 0 L 1351.65625 17.285156 L 1334.375 17.285156 Z M 1334.375 0 " clip-rule="nonzero"/></clipPath><clipPath id="753b50fb81"><path d="M 1403.257812 0 L 1420.539062 0 L 1420.539062 17.285156 L 1403.257812 17.285156 Z M 1403.257812 0 " clip-rule="nonzero"/></clipPath><clipPath id="f8439a4f6c"><path d="M 1248.207031 17.285156 L 1265.488281 17.285156 L 1265.488281 34.566406 L 1248.207031 34.566406 Z M 1248.207031 17.285156 " clip-rule="nonzero"/></clipPath><clipPath id="a1ea0b1cbd"><path d="M 1351.65625 17.285156 L 1368.941406 17.285156 L 1368.941406 34.566406 L 1351.65625 34.566406 Z M 1351.65625 17.285156 " clip-rule="nonzero"/></clipPath></defs><g clip-path="url(#aece2f9340)"><path fill="#f1ead1" d="M 19.460938 0 L 36.742188 0 L 36.742188 17.285156 L 19.460938 17.285156 Z M 19.460938 0 " fill-opacity="1" fill-rule="nonzero"/></g><g clip-path="url(#0a4c3a192c)"><path fill="#f1ead1" d="M 36.742188 17.285156 L 54.027344 17.285156 L 54.027344 34.566406 L 36.742188 34.566406 Z M 36.742188 17.285156 " fill-opacity="1" fill-rule="nonzero"/></g><g clip-path="url(#74eea10de8)"><path fill="#f1ead1" d="M 54.027344 0 L 71.3125 0 L 71.3125 17.285156 L 54.027344 17.285156 Z M 54.027344 0 " fill-opacity="1" fill-rule="nonzero"/></g><g clip-path="url(#d118362eaf)"><path fill="#f1ead1" d="M 71.3125 17.285156 L 88.59375 17.285156 L 88.59375 34.566406 L 71.3125 34.566406 Z M 71.3125 17.285156 " fill-opacity="1" fill-rule="nonzero"/></g><g clip-path="url(#a0bcc54a05)"><path fill="#f1ead1" d="M 88.59375 0 L 105.878906 0 L 105.878906 17.285156 L 88.59375 17.285156 Z M 88.59375 0 " fill-opacity="1" fill-rule="nonzero"/></g><g clip-path="url(#617d2f0079)"><path fill="#f1ead1" d="M 105.878906 17.285156 L 123.164062 17.285156 L 123.164062 34.566406 L 105.878906 34.566406 Z M 105.878906 17.285156 " fill-opacity="1" fill-rule="nonzero"/></g><g clip-path="url(#64aca564da)"><path fill="#f1ead1" d="M 123.164062 0 L 140.445312 0 L 140.445312 17.285156 L 123.164062 17.285156 Z M 123.164062 0 " fill-opacity="1" fill-rule="nonzero"/></g><g clip-path="url(#15be546209)"><path fill="#f1ead1" d="M 140.445312 17.285156 L 157.730469 17.285156 L 157.730469 34.566406 L 140.445312 34.566406 Z M 140.445312 17.285156 " fill-opacity="1" fill-rule="nonzero"/></g><g clip-path="url(#765967b7be)"><path fill="#f1ead1" d="M 157.730469 0 L 175.011719 0 L 175.011719 17.285156 L 157.730469 17.285156 Z M 157.730469 0 " fill-opacity="1" fill-rule="nonzero"/></g><g clip-path="url(#8b29670878)"><path fill="#f1ead1" d="M 175.011719 17.285156 L 192.296875 17.285156 L 192.296875 34.566406 L 175.011719 34.566406 Z M 175.011719 17.285156 " fill-opacity="1" fill-rule="nonzero"/></g><g clip-path="url(#491ad07be8)"><path fill="#f1ead1" d="M 192.296875 0 L 209.582031 0 L 209.582031 17.285156 L 192.296875 17.285156 Z M 192.296875 0 " fill-opacity="1" fill-rule="nonzero"/></g><g clip-path="url(#2124f23a60)"><path fill="#f1ead1" d="M 209.582031 17.285156 L 226.863281 17.285156 L 226.863281 34.566406 L 209.582031 34.566406 Z M 209.582031 17.285156 " fill-opacity="1" fill-rule="nonzero"/></g><g clip-path="url(#75f440df2f)"><path fill="#f1ead1" d="M 226.863281 0 L 244.148438 0 L 244.148438 17.285156 L 226.863281 17.285156 Z M 226.863281 0 " fill-opacity="1" fill-rule="nonzero"/></g><g clip-path="url(#6c3bc643c4)"><path fill="#f1ead1" d="M 244.148438 17.285156 L 261.433594 17.285156 L 261.433594 34.566406 L 244.148438 34.566406 Z M 244.148438 17.285156 " fill-opacity="1" fill-rule="nonzero"/></g><g clip-path="url(#a88cdf2fb8)"><path fill="#f1ead1" d="M 261.433594 0 L 278.714844 0 L 278.714844 17.285156 L 261.433594 17.285156 Z M 261.433594 0 " fill-opacity="1" fill-rule="nonzero"/></g><g clip-path="url(#3793bfcbcd)"><path fill="#f1ead1" d="M 278.714844 17.285156 L 296 17.285156 L 296 34.566406 L 278.714844 34.566406 Z M 278.714844 17.285156 " fill-opacity="1" fill-rule="nonzero"/></g><g clip-path="url(#2fdf850106)"><path fill="#f1ead1" d="M 296 0 L 313.285156 0 L 313.285156 17.285156 L 296 17.285156 Z M 296 0 " fill-opacity="1" fill-rule="nonzero"/></g><g clip-path="url(#b6fd58c25b)"><path fill="#f1ead1" d="M 313.285156 17.285156 L 330.566406 17.285156 L 330.566406 34.566406 L 313.285156 34.566406 Z M 313.285156 17.285156 " fill-opacity="1" fill-rule="nonzero"/></g><g clip-path="url(#0a061e51f8)"><path fill="#f1ead1" d="M 330.566406 0 L 347.851562 0 L 347.851562 17.285156 L 330.566406 17.285156 Z M 330.566406 0 " fill-opacity="1" fill-rule="nonzero"/></g><g clip-path="url(#84be119ffa)"><path fill="#f1ead1" d="M 347.851562 17.285156 L 365.136719 17.285156 L 365.136719 34.566406 L 347.851562 34.566406 Z M 347.851562 17.285156 " fill-opacity="1" fill-rule="nonzero"/></g><g clip-path="url(#bdd3110166)"><path fill="#f1ead1" d="M 365.136719 0 L 382.417969 0 L 382.417969 17.285156 L 365.136719 17.285156 Z M 365.136719 0 " fill-opacity="1" fill-rule="nonzero"/></g><g clip-path="url(#4073abc04d)"><path fill="#f1ead1" d="M 382.417969 17.285156 L 399.703125 17.285156 L 399.703125 34.566406 L 382.417969 34.566406 Z M 382.417969 17.285156 " fill-opacity="1" fill-rule="nonzero"/></g><g clip-path="url(#13fcdf314e)"><path fill="#f1ead1" d="M 399.703125 0 L 416.988281 0 L 416.988281 17.285156 L 399.703125 17.285156 Z M 399.703125 0 " fill-opacity="1" fill-rule="nonzero"/></g><g clip-path="url(#922e0b14d1)"><path fill="#f1ead1" d="M 416.988281 17.285156 L 434.269531 17.285156 L 434.269531 34.566406 L 416.988281 34.566406 Z M 416.988281 17.285156 " fill-opacity="1" fill-rule="nonzero"/></g><g clip-path="url(#f81c7bfe7c)"><path fill="#f1ead1" d="M 434.269531 0 L 451.554688 0 L 451.554688 17.285156 L 434.269531 17.285156 Z M 434.269531 0 " fill-opacity="1" fill-rule="nonzero"/></g><g clip-path="url(#62bf1c9231)"><path fill="#f1ead1" d="M 451.554688 17.285156 L 468.839844 17.285156 L 468.839844 34.566406 L 451.554688 34.566406 Z M 451.554688 17.285156 " fill-opacity="1" fill-rule="nonzero"/></g><g clip-path="url(#2b09bfb3ff)"><path fill="#f1ead1" d="M 468.839844 0 L 486.121094 0 L 486.121094 17.285156 L 468.839844 17.285156 Z M 468.839844 0 " fill-opacity="1" fill-rule="nonzero"/></g><g clip-path="url(#199ec4af81)"><path fill="#f1ead1" d="M 572.289062 0 L 589.574219 0 L 589.574219 17.285156 L 572.289062 17.285156 Z M 572.289062 0 " fill-opacity="1" fill-rule="nonzero"/></g><g clip-path="url(#c93dbfbb53)"><path fill="#f1ead1" d="M 486.121094 17.285156 L 503.40625 17.285156 L 503.40625 34.566406 L 486.121094 34.566406 Z M 486.121094 17.285156 " fill-opacity="1" fill-rule="nonzero"/></g><g clip-path="url(#a68268b397)"><path fill="#f1ead1" d="M 589.574219 17.285156 L 606.855469 17.285156 L 606.855469 34.566406 L 589.574219 34.566406 Z M 589.574219 17.285156 " fill-opacity="1" fill-rule="nonzero"/></g><g clip-path="url(#4d6eecc53c)"><path fill="#f1ead1" d="M 503.40625 0 L 520.691406 0 L 520.691406 17.285156 L 503.40625 17.285156 Z M 503.40625 0 " fill-opacity="1" fill-rule="nonzero"/></g><g clip-path="url(#6c0e1b0489)"><path fill="#f1ead1" d="M 606.855469 0 L 624.140625 0 L 624.140625 17.285156 L 606.855469 17.285156 Z M 606.855469 0 " fill-opacity="1" fill-rule="nonzero"/></g><g clip-path="url(#09c3673345)"><path fill="#f1ead1" d="M 675.738281 0 L 693.023438 0 L 693.023438 17.285156 L 675.738281 17.285156 Z M 675.738281 0 " fill-opacity="1" fill-rule="nonzero"/></g><g clip-path="url(#173802dcb6)"><path fill="#f1ead1" d="M 520.691406 17.285156 L 537.972656 17.285156 L 537.972656 34.566406 L 520.691406 34.566406 Z M 520.691406 17.285156 " fill-opacity="1" fill-rule="nonzero"/></g><g clip-path="url(#00e19dce57)"><path fill="#f1ead1" d="M 624.140625 17.285156 L 641.425781 17.285156 L 641.425781 34.566406 L 624.140625 34.566406 Z M 624.140625 17.285156 " fill-opacity="1" fill-rule="nonzero"/></g><g clip-path="url(#71a662b8a7)"><path fill="#f1ead1" d="M 693.023438 17.285156 L 710.308594 17.285156 L 710.308594 34.566406 L 693.023438 34.566406 Z M 693.023438 17.285156 " fill-opacity="1" fill-rule="nonzero"/></g><g clip-path="url(#a18c019e11)"><path fill="#f1ead1" d="M 537.972656 0 L 555.257812 0 L 555.257812 17.285156 L 537.972656 17.285156 Z M 537.972656 0 " fill-opacity="1" fill-rule="nonzero"/></g><g clip-path="url(#4eca209e0e)"><path fill="#f1ead1" d="M 641.425781 0 L 658.707031 0 L 658.707031 17.285156 L 641.425781 17.285156 Z M 641.425781 0 " fill-opacity="1" fill-rule="nonzero"/></g><g clip-path="url(#5fbcdfc3d8)"><path fill="#f1ead1" d="M 710.308594 0 L 727.589844 0 L 727.589844 17.285156 L 710.308594 17.285156 Z M 710.308594 0 " fill-opacity="1" fill-rule="nonzero"/></g><g clip-path="url(#79b6d271bd)"><path fill="#f1ead1" d="M 555.257812 17.285156 L 572.539062 17.285156 L 572.539062 34.566406 L 555.257812 34.566406 Z M 555.257812 17.285156 " fill-opacity="1" fill-rule="nonzero"/></g><g clip-path="url(#4352142532)"><path fill="#f1ead1" d="M 658.707031 17.285156 L 675.992188 17.285156 L 675.992188 34.566406 L 658.707031 34.566406 Z M 658.707031 17.285156 " fill-opacity="1" fill-rule="nonzero"/></g><g clip-path="url(#b271501676)"><path fill="#f1ead1" d="M 712.410156 0 L 729.691406 0 L 729.691406 17.285156 L 712.410156 17.285156 Z M 712.410156 0 " fill-opacity="1" fill-rule="nonzero"/></g><g clip-path="url(#1abed1818a)"><path fill="#f1ead1" d="M 729.691406 17.285156 L 746.976562 17.285156 L 746.976562 34.566406 L 729.691406 34.566406 Z M 729.691406 17.285156 " fill-opacity="1" fill-rule="nonzero"/></g><g clip-path="url(#88d26b0d03)"><path fill="#f1ead1" d="M 746.976562 0 L 764.261719 0 L 764.261719 17.285156 L 746.976562 17.285156 Z M 746.976562 0 " fill-opacity="1" fill-rule="nonzero"/></g><g clip-path="url(#9565024c27)"><path fill="#f1ead1" d="M 764.261719 17.285156 L 781.542969 17.285156 L 781.542969 34.566406 L 764.261719 34.566406 Z M 764.261719 17.285156 " fill-opacity="1" fill-rule="nonzero"/></g><g clip-path="url(#6f150ebbd1)"><path fill="#f1ead1" d="M 781.542969 0 L 798.828125 0 L 798.828125 17.285156 L 781.542969 17.285156 Z M 781.542969 0 " fill-opacity="1" fill-rule="nonzero"/></g><g clip-path="url(#dad3979bf0)"><path fill="#f1ead1" d="M 798.828125 17.285156 L 816.113281 17.285156 L 816.113281 34.566406 L 798.828125 34.566406 Z M 798.828125 17.285156 " fill-opacity="1" fill-rule="nonzero"/></g><g clip-path="url(#4dfd8b9e85)"><path fill="#f1ead1" d="M 816.109375 0 L 833.394531 0 L 833.394531 17.285156 L 816.109375 17.285156 Z M 816.109375 0 " fill-opacity="1" fill-rule="nonzero"/></g><g clip-path="url(#d4ce10aa06)"><path fill="#f1ead1" d="M 833.394531 17.285156 L 850.679688 17.285156 L 850.679688 34.566406 L 833.394531 34.566406 Z M 833.394531 17.285156 " fill-opacity="1" fill-rule="nonzero"/></g><g clip-path="url(#5333dffe84)"><path fill="#f1ead1" d="M 850.679688 0 L 867.960938 0 L 867.960938 17.285156 L 850.679688 17.285156 Z M 850.679688 0 " fill-opacity="1" fill-rule="nonzero"/></g><g clip-path="url(#c01ace12f6)"><path fill="#f1ead1" d="M 867.960938 17.285156 L 885.246094 17.285156 L 885.246094 34.566406 L 867.960938 34.566406 Z M 867.960938 17.285156 " fill-opacity="1" fill-rule="nonzero"/></g><g clip-path="url(#d087a69136)"><path fill="#f1ead1" d="M 885.246094 0 L 902.53125 0 L 902.53125 17.285156 L 885.246094 17.285156 Z M 885.246094 0 " fill-opacity="1" fill-rule="nonzero"/></g><g clip-path="url(#f6945ff4b3)"><path fill="#f1ead1" d="M 902.53125 17.285156 L 919.8125 17.285156 L 919.8125 34.566406 L 902.53125 34.566406 Z M 902.53125 17.285156 " fill-opacity="1" fill-rule="nonzero"/></g><g clip-path="url(#2379b42074)"><path fill="#f1ead1" d="M 919.8125 0 L 937.097656 0 L 937.097656 17.285156 L 919.8125 17.285156 Z M 919.8125 0 " fill-opacity="1" fill-rule="nonzero"/></g><g clip-path="url(#363ca7a8df)"><path fill="#f1ead1" d="M 937.097656 17.285156 L 954.382812 17.285156 L 954.382812 34.566406 L 937.097656 34.566406 Z M 937.097656 17.285156 " fill-opacity="1" fill-rule="nonzero"/></g><g clip-path="url(#5bc3e99287)"><path fill="#f1ead1" d="M 954.382812 0 L 971.664062 0 L 971.664062 17.285156 L 954.382812 17.285156 Z M 954.382812 0 " fill-opacity="1" fill-rule="nonzero"/></g><g clip-path="url(#40baebd307)"><path fill="#f1ead1" d="M 971.664062 17.285156 L 988.949219 17.285156 L 988.949219 34.566406 L 971.664062 34.566406 Z M 971.664062 17.285156 " fill-opacity="1" fill-rule="nonzero"/></g><g clip-path="url(#66b821326d)"><path fill="#f1ead1" d="M 988.949219 0 L 1006.234375 0 L 1006.234375 17.285156 L 988.949219 17.285156 Z M 988.949219 0 " fill-opacity="1" fill-rule="nonzero"/></g><g clip-path="url(#79132c84f1)"><path fill="#f1ead1" d="M 1006.234375 17.285156 L 1023.515625 17.285156 L 1023.515625 34.566406 L 1006.234375 34.566406 Z M 1006.234375 17.285156 " fill-opacity="1" fill-rule="nonzero"/></g><g clip-path="url(#59bb09401d)"><path fill="#f1ead1" d="M 1023.515625 0 L 1040.800781 0 L 1040.800781 17.285156 L 1023.515625 17.285156 Z M 1023.515625 0 " fill-opacity="1" fill-rule="nonzero"/></g><g clip-path="url(#8c23aa2513)"><path fill="#f1ead1" d="M 1040.800781 17.285156 L 1058.085938 17.285156 L 1058.085938 34.566406 L 1040.800781 34.566406 Z M 1040.800781 17.285156 " fill-opacity="1" fill-rule="nonzero"/></g><g clip-path="url(#61b47f73db)"><path fill="#f1ead1" d="M 1058.085938 0 L 1075.367188 0 L 1075.367188 17.285156 L 1058.085938 17.285156 Z M 1058.085938 0 " fill-opacity="1" fill-rule="nonzero"/></g><g clip-path="url(#816ab45da7)"><path fill="#f1ead1" d="M 1075.367188 17.285156 L 1092.652344 17.285156 L 1092.652344 34.566406 L 1075.367188 34.566406 Z M 1075.367188 17.285156 " fill-opacity="1" fill-rule="nonzero"/></g><g clip-path="url(#85568e6ecb)"><path fill="#f1ead1" d="M 1092.652344 0 L 1109.9375 0 L 1109.9375 17.285156 L 1092.652344 17.285156 Z M 1092.652344 0 " fill-opacity="1" fill-rule="nonzero"/></g><g clip-path="url(#3d1466d507)"><path fill="#f1ead1" d="M 1109.9375 17.285156 L 1127.21875 17.285156 L 1127.21875 34.566406 L 1109.9375 34.566406 Z M 1109.9375 17.285156 " fill-opacity="1" fill-rule="nonzero"/></g><g clip-path="url(#49803e9f5e)"><path fill="#f1ead1" d="M 1127.21875 0 L 1144.503906 0 L 1144.503906 17.285156 L 1127.21875 17.285156 Z M 1127.21875 0 " fill-opacity="1" fill-rule="nonzero"/></g><g clip-path="url(#01a4e53dbd)"><path fill="#f1ead1" d="M 1144.503906 17.285156 L 1161.789062 17.285156 L 1161.789062 34.566406 L 1144.503906 34.566406 Z M 1144.503906 17.285156 " fill-opacity="1" fill-rule="nonzero"/></g><g clip-path="url(#d1be6dc288)"><path fill="#f1ead1" d="M 1161.789062 0 L 1179.070312 0 L 1179.070312 17.285156 L 1161.789062 17.285156 Z M 1161.789062 0 " fill-opacity="1" fill-rule="nonzero"/></g><g clip-path="url(#19c52f9a38)"><path fill="#f1ead1" d="M 1265.238281 0 L 1282.523438 0 L 1282.523438 17.285156 L 1265.238281 17.285156 Z M 1265.238281 0 " fill-opacity="1" fill-rule="nonzero"/></g><g clip-path="url(#39cbdb30e5)"><path fill="#f1ead1" d="M 1179.070312 17.285156 L 1196.355469 17.285156 L 1196.355469 34.566406 L 1179.070312 34.566406 Z M 1179.070312 17.285156 " fill-opacity="1" fill-rule="nonzero"/></g><g clip-path="url(#2d935e6e36)"><path fill="#f1ead1" d="M 1282.523438 17.285156 L 1299.804688 17.285156 L 1299.804688 34.566406 L 1282.523438 34.566406 Z M 1282.523438 17.285156 " fill-opacity="1" fill-rule="nonzero"/></g><g clip-path="url(#6fe2dd2702)"><path fill="#f1ead1" d="M 1196.355469 0 L 1213.636719 0 L 1213.636719 17.285156 L 1196.355469 17.285156 Z M 1196.355469 0 " fill-opacity="1" fill-rule="nonzero"/></g><g clip-path="url(#88483721f9)"><path fill="#f1ead1" d="M 1299.804688 0 L 1317.089844 0 L 1317.089844 17.285156 L 1299.804688 17.285156 Z M 1299.804688 0 " fill-opacity="1" fill-rule="nonzero"/></g><g clip-path="url(#63cace951d)"><path fill="#f1ead1" d="M 1368.6875 0 L 1385.972656 0 L 1385.972656 17.285156 L 1368.6875 17.285156 Z M 1368.6875 0 " fill-opacity="1" fill-rule="nonzero"/></g><g clip-path="url(#44fb112db5)"><path fill="#f1ead1" d="M 1213.636719 17.285156 L 1230.921875 17.285156 L 1230.921875 34.566406 L 1213.636719 34.566406 Z M 1213.636719 17.285156 " fill-opacity="1" fill-rule="nonzero"/></g><g clip-path="url(#54560602ee)"><path fill="#f1ead1" d="M 1317.089844 17.285156 L 1334.375 17.285156 L 1334.375 34.566406 L 1317.089844 34.566406 Z M 1317.089844 17.285156 " fill-opacity="1" fill-rule="nonzero"/></g><g clip-path="url(#4ca98c85ed)"><path fill="#f1ead1" d="M 1385.972656 17.285156 L 1403.257812 17.285156 L 1403.257812 34.566406 L 1385.972656 34.566406 Z M 1385.972656 17.285156 " fill-opacity="1" fill-rule="nonzero"/></g><g clip-path="url(#7f262c8fe3)"><path fill="#f1ead1" d="M 1230.921875 0 L 1248.207031 0 L 1248.207031 17.285156 L 1230.921875 17.285156 Z M 1230.921875 0 " fill-opacity="1" fill-rule="nonzero"/></g><g clip-path="url(#eb803a0d8f)"><path fill="#f1ead1" d="M 1334.375 0 L 1351.65625 0 L 1351.65625 17.285156 L 1334.375 17.285156 Z M 1334.375 0 " fill-opacity="1" fill-rule="nonzero"/></g><g clip-path="url(#753b50fb81)"><path fill="#f1ead1" d="M 1403.257812 0 L 1420.539062 0 L 1420.539062 17.285156 L 1403.257812 17.285156 Z M 1403.257812 0 " fill-opacity="1" fill-rule="nonzero"/></g><g clip-path="url(#f8439a4f6c)"><path fill="#f1ead1" d="M 1248.207031 17.285156 L 1265.488281 17.285156 L 1265.488281 34.566406 L 1248.207031 34.566406 Z M 1248.207031 17.285156 " fill-opacity="1" fill-rule="nonzero"/></g><g clip-path="url(#a1ea0b1cbd)"><path fill="#f1ead1" d="M 1351.65625 17.285156 L 1368.941406 17.285156 L 1368.941406 34.566406 L 1351.65625 34.566406 Z M 1351.65625 17.285156 " fill-opacity="1" fill-rule="nonzero"/></g></svg>