<svg xmlns="http://www.w3.org/2000/svg" xmlns:xlink="http://www.w3.org/1999/xlink" width="1920" zoomAndPan="magnify" viewBox="0 0 1440 36.000001" height="48" preserveAspectRatio="xMidYMid meet" version="1.0"><defs><clipPath id="f3e75e3574"><path d="M 19.460938 0 L 36.742188 0 L 36.742188 17.285156 L 19.460938 17.285156 Z M 19.460938 0 " clip-rule="nonzero"/></clipPath><clipPath id="7c17782568"><path d="M 36.742188 17.285156 L 54.027344 17.285156 L 54.027344 34.566406 L 36.742188 34.566406 Z M 36.742188 17.285156 " clip-rule="nonzero"/></clipPath><clipPath id="8c8b158f3f"><path d="M 54.027344 0 L 71.3125 0 L 71.3125 17.285156 L 54.027344 17.285156 Z M 54.027344 0 " clip-rule="nonzero"/></clipPath><clipPath id="4c8b533751"><path d="M 71.3125 17.285156 L 88.59375 17.285156 L 88.59375 34.566406 L 71.3125 34.566406 Z M 71.3125 17.285156 " clip-rule="nonzero"/></clipPath><clipPath id="88c6e87c6a"><path d="M 88.59375 0 L 105.878906 0 L 105.878906 17.285156 L 88.59375 17.285156 Z M 88.59375 0 " clip-rule="nonzero"/></clipPath><clipPath id="86b95e5127"><path d="M 105.878906 17.285156 L 123.164062 17.285156 L 123.164062 34.566406 L 105.878906 34.566406 Z M 105.878906 17.285156 " clip-rule="nonzero"/></clipPath><clipPath id="59b11a83e0"><path d="M 123.164062 0 L 140.445312 0 L 140.445312 17.285156 L 123.164062 17.285156 Z M 123.164062 0 " clip-rule="nonzero"/></clipPath><clipPath id="a73ffa4cc5"><path d="M 140.445312 17.285156 L 157.730469 17.285156 L 157.730469 34.566406 L 140.445312 34.566406 Z M 140.445312 17.285156 " clip-rule="nonzero"/></clipPath><clipPath id="cb9d821196"><path d="M 157.730469 0 L 175.011719 0 L 175.011719 17.285156 L 157.730469 17.285156 Z M 157.730469 0 " clip-rule="nonzero"/></clipPath><clipPath id="92696a16fb"><path d="M 175.011719 17.285156 L 192.296875 17.285156 L 192.296875 34.566406 L 175.011719 34.566406 Z M 175.011719 17.285156 " clip-rule="nonzero"/></clipPath><clipPath id="4f5d1a6e1c"><path d="M 192.296875 0 L 209.582031 0 L 209.582031 17.285156 L 192.296875 17.285156 Z M 192.296875 0 " clip-rule="nonzero"/></clipPath><clipPath id="41d5f9aa18"><path d="M 209.582031 17.285156 L 226.863281 17.285156 L 226.863281 34.566406 L 209.582031 34.566406 Z M 209.582031 17.285156 " clip-rule="nonzero"/></clipPath><clipPath id="b68c3ae83b"><path d="M 226.863281 0 L 244.148438 0 L 244.148438 17.285156 L 226.863281 17.285156 Z M 226.863281 0 " clip-rule="nonzero"/></clipPath><clipPath id="5282f8a1b9"><path d="M 244.148438 17.285156 L 261.433594 17.285156 L 261.433594 34.566406 L 244.148438 34.566406 Z M 244.148438 17.285156 " clip-rule="nonzero"/></clipPath><clipPath id="625a0754c0"><path d="M 261.433594 0 L 278.714844 0 L 278.714844 17.285156 L 261.433594 17.285156 Z M 261.433594 0 " clip-rule="nonzero"/></clipPath><clipPath id="03bc549fb3"><path d="M 278.714844 17.285156 L 296 17.285156 L 296 34.566406 L 278.714844 34.566406 Z M 278.714844 17.285156 " clip-rule="nonzero"/></clipPath><clipPath id="11103a7112"><path d="M 296 0 L 313.285156 0 L 313.285156 17.285156 L 296 17.285156 Z M 296 0 " clip-rule="nonzero"/></clipPath><clipPath id="55a6f93c33"><path d="M 313.285156 17.285156 L 330.566406 17.285156 L 330.566406 34.566406 L 313.285156 34.566406 Z M 313.285156 17.285156 " clip-rule="nonzero"/></clipPath><clipPath id="ad67fcf352"><path d="M 330.566406 0 L 347.851562 0 L 347.851562 17.285156 L 330.566406 17.285156 Z M 330.566406 0 " clip-rule="nonzero"/></clipPath><clipPath id="f3785d1c28"><path d="M 347.851562 17.285156 L 365.136719 17.285156 L 365.136719 34.566406 L 347.851562 34.566406 Z M 347.851562 17.285156 " clip-rule="nonzero"/></clipPath><clipPath id="aec4f8995d"><path d="M 365.136719 0 L 382.417969 0 L 382.417969 17.285156 L 365.136719 17.285156 Z M 365.136719 0 " clip-rule="nonzero"/></clipPath><clipPath id="f0ad154aa4"><path d="M 382.417969 17.285156 L 399.703125 17.285156 L 399.703125 34.566406 L 382.417969 34.566406 Z M 382.417969 17.285156 " clip-rule="nonzero"/></clipPath><clipPath id="60bbad9b52"><path d="M 399.703125 0 L 416.988281 0 L 416.988281 17.285156 L 399.703125 17.285156 Z M 399.703125 0 " clip-rule="nonzero"/></clipPath><clipPath id="e920fda0b5"><path d="M 416.988281 17.285156 L 434.269531 17.285156 L 434.269531 34.566406 L 416.988281 34.566406 Z M 416.988281 17.285156 " clip-rule="nonzero"/></clipPath><clipPath id="398ba2ae60"><path d="M 434.269531 0 L 451.554688 0 L 451.554688 17.285156 L 434.269531 17.285156 Z M 434.269531 0 " clip-rule="nonzero"/></clipPath><clipPath id="87fd49d992"><path d="M 451.554688 17.285156 L 468.839844 17.285156 L 468.839844 34.566406 L 451.554688 34.566406 Z M 451.554688 17.285156 " clip-rule="nonzero"/></clipPath><clipPath id="83e3ff7543"><path d="M 468.839844 0 L 486.121094 0 L 486.121094 17.285156 L 468.839844 17.285156 Z M 468.839844 0 " clip-rule="nonzero"/></clipPath><clipPath id="e166b2c26d"><path d="M 572.289062 0 L 589.574219 0 L 589.574219 17.285156 L 572.289062 17.285156 Z M 572.289062 0 " clip-rule="nonzero"/></clipPath><clipPath id="bb80bcadad"><path d="M 486.121094 17.285156 L 503.40625 17.285156 L 503.40625 34.566406 L 486.121094 34.566406 Z M 486.121094 17.285156 " clip-rule="nonzero"/></clipPath><clipPath id="5b3a529116"><path d="M 589.574219 17.285156 L 606.855469 17.285156 L 606.855469 34.566406 L 589.574219 34.566406 Z M 589.574219 17.285156 " clip-rule="nonzero"/></clipPath><clipPath id="286b841ece"><path d="M 503.40625 0 L 520.691406 0 L 520.691406 17.285156 L 503.40625 17.285156 Z M 503.40625 0 " clip-rule="nonzero"/></clipPath><clipPath id="7fce8d4e1e"><path d="M 606.855469 0 L 624.140625 0 L 624.140625 17.285156 L 606.855469 17.285156 Z M 606.855469 0 " clip-rule="nonzero"/></clipPath><clipPath id="4ee913e899"><path d="M 675.738281 0 L 693.023438 0 L 693.023438 17.285156 L 675.738281 17.285156 Z M 675.738281 0 " clip-rule="nonzero"/></clipPath><clipPath id="5ed7f57d16"><path d="M 520.691406 17.285156 L 537.972656 17.285156 L 537.972656 34.566406 L 520.691406 34.566406 Z M 520.691406 17.285156 " clip-rule="nonzero"/></clipPath><clipPath id="441b8a3f39"><path d="M 624.140625 17.285156 L 641.425781 17.285156 L 641.425781 34.566406 L 624.140625 34.566406 Z M 624.140625 17.285156 " clip-rule="nonzero"/></clipPath><clipPath id="9da0b30e02"><path d="M 693.023438 17.285156 L 710.308594 17.285156 L 710.308594 34.566406 L 693.023438 34.566406 Z M 693.023438 17.285156 " clip-rule="nonzero"/></clipPath><clipPath id="0f6c116eae"><path d="M 537.972656 0 L 555.257812 0 L 555.257812 17.285156 L 537.972656 17.285156 Z M 537.972656 0 " clip-rule="nonzero"/></clipPath><clipPath id="e8f8260356"><path d="M 641.425781 0 L 658.707031 0 L 658.707031 17.285156 L 641.425781 17.285156 Z M 641.425781 0 " clip-rule="nonzero"/></clipPath><clipPath id="96cf8ab637"><path d="M 710.308594 0 L 727.589844 0 L 727.589844 17.285156 L 710.308594 17.285156 Z M 710.308594 0 " clip-rule="nonzero"/></clipPath><clipPath id="bdf2236119"><path d="M 555.257812 17.285156 L 572.539062 17.285156 L 572.539062 34.566406 L 555.257812 34.566406 Z M 555.257812 17.285156 " clip-rule="nonzero"/></clipPath><clipPath id="45b435f673"><path d="M 658.707031 17.285156 L 675.992188 17.285156 L 675.992188 34.566406 L 658.707031 34.566406 Z M 658.707031 17.285156 " clip-rule="nonzero"/></clipPath><clipPath id="63b2ccc667"><path d="M 712.410156 0 L 729.691406 0 L 729.691406 17.285156 L 712.410156 17.285156 Z M 712.410156 0 " clip-rule="nonzero"/></clipPath><clipPath id="a846ee23c9"><path d="M 729.691406 17.285156 L 746.976562 17.285156 L 746.976562 34.566406 L 729.691406 34.566406 Z M 729.691406 17.285156 " clip-rule="nonzero"/></clipPath><clipPath id="cd65575537"><path d="M 746.976562 0 L 764.261719 0 L 764.261719 17.285156 L 746.976562 17.285156 Z M 746.976562 0 " clip-rule="nonzero"/></clipPath><clipPath id="1534b06415"><path d="M 764.261719 17.285156 L 781.542969 17.285156 L 781.542969 34.566406 L 764.261719 34.566406 Z M 764.261719 17.285156 " clip-rule="nonzero"/></clipPath><clipPath id="33507d50b8"><path d="M 781.542969 0 L 798.828125 0 L 798.828125 17.285156 L 781.542969 17.285156 Z M 781.542969 0 " clip-rule="nonzero"/></clipPath><clipPath id="260fe8593b"><path d="M 798.828125 17.285156 L 816.113281 17.285156 L 816.113281 34.566406 L 798.828125 34.566406 Z M 798.828125 17.285156 " clip-rule="nonzero"/></clipPath><clipPath id="e04b35bf92"><path d="M 816.109375 0 L 833.394531 0 L 833.394531 17.285156 L 816.109375 17.285156 Z M 816.109375 0 " clip-rule="nonzero"/></clipPath><clipPath id="bbf3152df8"><path d="M 833.394531 17.285156 L 850.679688 17.285156 L 850.679688 34.566406 L 833.394531 34.566406 Z M 833.394531 17.285156 " clip-rule="nonzero"/></clipPath><clipPath id="7444b652d7"><path d="M 850.679688 0 L 867.960938 0 L 867.960938 17.285156 L 850.679688 17.285156 Z M 850.679688 0 " clip-rule="nonzero"/></clipPath><clipPath id="016a5c8adc"><path d="M 867.960938 17.285156 L 885.246094 17.285156 L 885.246094 34.566406 L 867.960938 34.566406 Z M 867.960938 17.285156 " clip-rule="nonzero"/></clipPath><clipPath id="fbc9dae529"><path d="M 885.246094 0 L 902.53125 0 L 902.53125 17.285156 L 885.246094 17.285156 Z M 885.246094 0 " clip-rule="nonzero"/></clipPath><clipPath id="e1b1ed734f"><path d="M 902.53125 17.285156 L 919.8125 17.285156 L 919.8125 34.566406 L 902.53125 34.566406 Z M 902.53125 17.285156 " clip-rule="nonzero"/></clipPath><clipPath id="9e5d9bcb55"><path d="M 919.8125 0 L 937.097656 0 L 937.097656 17.285156 L 919.8125 17.285156 Z M 919.8125 0 " clip-rule="nonzero"/></clipPath><clipPath id="d169d31b5f"><path d="M 937.097656 17.285156 L 954.382812 17.285156 L 954.382812 34.566406 L 937.097656 34.566406 Z M 937.097656 17.285156 " clip-rule="nonzero"/></clipPath><clipPath id="56d7bc4284"><path d="M 954.382812 0 L 971.664062 0 L 971.664062 17.285156 L 954.382812 17.285156 Z M 954.382812 0 " clip-rule="nonzero"/></clipPath><clipPath id="364630c024"><path d="M 971.664062 17.285156 L 988.949219 17.285156 L 988.949219 34.566406 L 971.664062 34.566406 Z M 971.664062 17.285156 " clip-rule="nonzero"/></clipPath><clipPath id="d54982dc10"><path d="M 988.949219 0 L 1006.234375 0 L 1006.234375 17.285156 L 988.949219 17.285156 Z M 988.949219 0 " clip-rule="nonzero"/></clipPath><clipPath id="cce5e17508"><path d="M 1006.234375 17.285156 L 1023.515625 17.285156 L 1023.515625 34.566406 L 1006.234375 34.566406 Z M 1006.234375 17.285156 " clip-rule="nonzero"/></clipPath><clipPath id="4630089560"><path d="M 1023.515625 0 L 1040.800781 0 L 1040.800781 17.285156 L 1023.515625 17.285156 Z M 1023.515625 0 " clip-rule="nonzero"/></clipPath><clipPath id="4b78a5b4cc"><path d="M 1040.800781 17.285156 L 1058.085938 17.285156 L 1058.085938 34.566406 L 1040.800781 34.566406 Z M 1040.800781 17.285156 " clip-rule="nonzero"/></clipPath><clipPath id="9fa2d32bfc"><path d="M 1058.085938 0 L 1075.367188 0 L 1075.367188 17.285156 L 1058.085938 17.285156 Z M 1058.085938 0 " clip-rule="nonzero"/></clipPath><clipPath id="a712239e44"><path d="M 1075.367188 17.285156 L 1092.652344 17.285156 L 1092.652344 34.566406 L 1075.367188 34.566406 Z M 1075.367188 17.285156 " clip-rule="nonzero"/></clipPath><clipPath id="ca6ebace31"><path d="M 1092.652344 0 L 1109.9375 0 L 1109.9375 17.285156 L 1092.652344 17.285156 Z M 1092.652344 0 " clip-rule="nonzero"/></clipPath><clipPath id="771335d423"><path d="M 1109.9375 17.285156 L 1127.21875 17.285156 L 1127.21875 34.566406 L 1109.9375 34.566406 Z M 1109.9375 17.285156 " clip-rule="nonzero"/></clipPath><clipPath id="169c9fe8ed"><path d="M 1127.21875 0 L 1144.503906 0 L 1144.503906 17.285156 L 1127.21875 17.285156 Z M 1127.21875 0 " clip-rule="nonzero"/></clipPath><clipPath id="9ad8807335"><path d="M 1144.503906 17.285156 L 1161.789062 17.285156 L 1161.789062 34.566406 L 1144.503906 34.566406 Z M 1144.503906 17.285156 " clip-rule="nonzero"/></clipPath><clipPath id="754ab188ab"><path d="M 1161.789062 0 L 1179.070312 0 L 1179.070312 17.285156 L 1161.789062 17.285156 Z M 1161.789062 0 " clip-rule="nonzero"/></clipPath><clipPath id="06a35d8681"><path d="M 1265.238281 0 L 1282.523438 0 L 1282.523438 17.285156 L 1265.238281 17.285156 Z M 1265.238281 0 " clip-rule="nonzero"/></clipPath><clipPath id="cbf37794f0"><path d="M 1179.070312 17.285156 L 1196.355469 17.285156 L 1196.355469 34.566406 L 1179.070312 34.566406 Z M 1179.070312 17.285156 " clip-rule="nonzero"/></clipPath><clipPath id="f8e9edaa65"><path d="M 1282.523438 17.285156 L 1299.804688 17.285156 L 1299.804688 34.566406 L 1282.523438 34.566406 Z M 1282.523438 17.285156 " clip-rule="nonzero"/></clipPath><clipPath id="0833d66bd0"><path d="M 1196.355469 0 L 1213.636719 0 L 1213.636719 17.285156 L 1196.355469 17.285156 Z M 1196.355469 0 " clip-rule="nonzero"/></clipPath><clipPath id="075501f831"><path d="M 1299.804688 0 L 1317.089844 0 L 1317.089844 17.285156 L 1299.804688 17.285156 Z M 1299.804688 0 " clip-rule="nonzero"/></clipPath><clipPath id="0bd611f526"><path d="M 1368.6875 0 L 1385.972656 0 L 1385.972656 17.285156 L 1368.6875 17.285156 Z M 1368.6875 0 " clip-rule="nonzero"/></clipPath><clipPath id="7e4ddc6de5"><path d="M 1213.636719 17.285156 L 1230.921875 17.285156 L 1230.921875 34.566406 L 1213.636719 34.566406 Z M 1213.636719 17.285156 " clip-rule="nonzero"/></clipPath><clipPath id="05c3a8d0f3"><path d="M 1317.089844 17.285156 L 1334.375 17.285156 L 1334.375 34.566406 L 1317.089844 34.566406 Z M 1317.089844 17.285156 " clip-rule="nonzero"/></clipPath><clipPath id="2d584e3c4e"><path d="M 1385.972656 17.285156 L 1403.257812 17.285156 L 1403.257812 34.566406 L 1385.972656 34.566406 Z M 1385.972656 17.285156 " clip-rule="nonzero"/></clipPath><clipPath id="b4d306edaa"><path d="M 1230.921875 0 L 1248.207031 0 L 1248.207031 17.285156 L 1230.921875 17.285156 Z M 1230.921875 0 " clip-rule="nonzero"/></clipPath><clipPath id="cc98a0da87"><path d="M 1334.375 0 L 1351.65625 0 L 1351.65625 17.285156 L 1334.375 17.285156 Z M 1334.375 0 " clip-rule="nonzero"/></clipPath><clipPath id="a988009ee9"><path d="M 1403.257812 0 L 1420.539062 0 L 1420.539062 17.285156 L 1403.257812 17.285156 Z M 1403.257812 0 " clip-rule="nonzero"/></clipPath><clipPath id="9425752788"><path d="M 1248.207031 17.285156 L 1265.488281 17.285156 L 1265.488281 34.566406 L 1248.207031 34.566406 Z M 1248.207031 17.285156 " clip-rule="nonzero"/></clipPath><clipPath id="080a9f2c27"><path d="M 1351.65625 17.285156 L 1368.941406 17.285156 L 1368.941406 34.566406 L 1351.65625 34.566406 Z M 1351.65625 17.285156 " clip-rule="nonzero"/></clipPath></defs><g clip-path="url(#f3e75e3574)"><path fill="#097d4c" d="M 19.460938 0 L 36.742188 0 L 36.742188 17.285156 L 19.460938 17.285156 Z M 19.460938 0 " fill-opacity="1" fill-rule="nonzero"/></g><g clip-path="url(#7c17782568)"><path fill="#097d4c" d="M 36.742188 17.285156 L 54.027344 17.285156 L 54.027344 34.566406 L 36.742188 34.566406 Z M 36.742188 17.285156 " fill-opacity="1" fill-rule="nonzero"/></g><g clip-path="url(#8c8b158f3f)"><path fill="#097d4c" d="M 54.027344 0 L 71.3125 0 L 71.3125 17.285156 L 54.027344 17.285156 Z M 54.027344 0 " fill-opacity="1" fill-rule="nonzero"/></g><g clip-path="url(#4c8b533751)"><path fill="#097d4c" d="M 71.3125 17.285156 L 88.59375 17.285156 L 88.59375 34.566406 L 71.3125 34.566406 Z M 71.3125 17.285156 " fill-opacity="1" fill-rule="nonzero"/></g><g clip-path="url(#88c6e87c6a)"><path fill="#097d4c" d="M 88.59375 0 L 105.878906 0 L 105.878906 17.285156 L 88.59375 17.285156 Z M 88.59375 0 " fill-opacity="1" fill-rule="nonzero"/></g><g clip-path="url(#86b95e5127)"><path fill="#097d4c" d="M 105.878906 17.285156 L 123.164062 17.285156 L 123.164062 34.566406 L 105.878906 34.566406 Z M 105.878906 17.285156 " fill-opacity="1" fill-rule="nonzero"/></g><g clip-path="url(#59b11a83e0)"><path fill="#097d4c" d="M 123.164062 0 L 140.445312 0 L 140.445312 17.285156 L 123.164062 17.285156 Z M 123.164062 0 " fill-opacity="1" fill-rule="nonzero"/></g><g clip-path="url(#a73ffa4cc5)"><path fill="#097d4c" d="M 140.445312 17.285156 L 157.730469 17.285156 L 157.730469 34.566406 L 140.445312 34.566406 Z M 140.445312 17.285156 " fill-opacity="1" fill-rule="nonzero"/></g><g clip-path="url(#cb9d821196)"><path fill="#097d4c" d="M 157.730469 0 L 175.011719 0 L 175.011719 17.285156 L 157.730469 17.285156 Z M 157.730469 0 " fill-opacity="1" fill-rule="nonzero"/></g><g clip-path="url(#92696a16fb)"><path fill="#097d4c" d="M 175.011719 17.285156 L 192.296875 17.285156 L 192.296875 34.566406 L 175.011719 34.566406 Z M 175.011719 17.285156 " fill-opacity="1" fill-rule="nonzero"/></g><g clip-path="url(#4f5d1a6e1c)"><path fill="#097d4c" d="M 192.296875 0 L 209.582031 0 L 209.582031 17.285156 L 192.296875 17.285156 Z M 192.296875 0 " fill-opacity="1" fill-rule="nonzero"/></g><g clip-path="url(#41d5f9aa18)"><path fill="#097d4c" d="M 209.582031 17.285156 L 226.863281 17.285156 L 226.863281 34.566406 L 209.582031 34.566406 Z M 209.582031 17.285156 " fill-opacity="1" fill-rule="nonzero"/></g><g clip-path="url(#b68c3ae83b)"><path fill="#097d4c" d="M 226.863281 0 L 244.148438 0 L 244.148438 17.285156 L 226.863281 17.285156 Z M 226.863281 0 " fill-opacity="1" fill-rule="nonzero"/></g><g clip-path="url(#5282f8a1b9)"><path fill="#097d4c" d="M 244.148438 17.285156 L 261.433594 17.285156 L 261.433594 34.566406 L 244.148438 34.566406 Z M 244.148438 17.285156 " fill-opacity="1" fill-rule="nonzero"/></g><g clip-path="url(#625a0754c0)"><path fill="#097d4c" d="M 261.433594 0 L 278.714844 0 L 278.714844 17.285156 L 261.433594 17.285156 Z M 261.433594 0 " fill-opacity="1" fill-rule="nonzero"/></g><g clip-path="url(#03bc549fb3)"><path fill="#097d4c" d="M 278.714844 17.285156 L 296 17.285156 L 296 34.566406 L 278.714844 34.566406 Z M 278.714844 17.285156 " fill-opacity="1" fill-rule="nonzero"/></g><g clip-path="url(#11103a7112)"><path fill="#097d4c" d="M 296 0 L 313.285156 0 L 313.285156 17.285156 L 296 17.285156 Z M 296 0 " fill-opacity="1" fill-rule="nonzero"/></g><g clip-path="url(#55a6f93c33)"><path fill="#097d4c" d="M 313.285156 17.285156 L 330.566406 17.285156 L 330.566406 34.566406 L 313.285156 34.566406 Z M 313.285156 17.285156 " fill-opacity="1" fill-rule="nonzero"/></g><g clip-path="url(#ad67fcf352)"><path fill="#097d4c" d="M 330.566406 0 L 347.851562 0 L 347.851562 17.285156 L 330.566406 17.285156 Z M 330.566406 0 " fill-opacity="1" fill-rule="nonzero"/></g><g clip-path="url(#f3785d1c28)"><path fill="#097d4c" d="M 347.851562 17.285156 L 365.136719 17.285156 L 365.136719 34.566406 L 347.851562 34.566406 Z M 347.851562 17.285156 " fill-opacity="1" fill-rule="nonzero"/></g><g clip-path="url(#aec4f8995d)"><path fill="#097d4c" d="M 365.136719 0 L 382.417969 0 L 382.417969 17.285156 L 365.136719 17.285156 Z M 365.136719 0 " fill-opacity="1" fill-rule="nonzero"/></g><g clip-path="url(#f0ad154aa4)"><path fill="#097d4c" d="M 382.417969 17.285156 L 399.703125 17.285156 L 399.703125 34.566406 L 382.417969 34.566406 Z M 382.417969 17.285156 " fill-opacity="1" fill-rule="nonzero"/></g><g clip-path="url(#60bbad9b52)"><path fill="#097d4c" d="M 399.703125 0 L 416.988281 0 L 416.988281 17.285156 L 399.703125 17.285156 Z M 399.703125 0 " fill-opacity="1" fill-rule="nonzero"/></g><g clip-path="url(#e920fda0b5)"><path fill="#097d4c" d="M 416.988281 17.285156 L 434.269531 17.285156 L 434.269531 34.566406 L 416.988281 34.566406 Z M 416.988281 17.285156 " fill-opacity="1" fill-rule="nonzero"/></g><g clip-path="url(#398ba2ae60)"><path fill="#097d4c" d="M 434.269531 0 L 451.554688 0 L 451.554688 17.285156 L 434.269531 17.285156 Z M 434.269531 0 " fill-opacity="1" fill-rule="nonzero"/></g><g clip-path="url(#87fd49d992)"><path fill="#097d4c" d="M 451.554688 17.285156 L 468.839844 17.285156 L 468.839844 34.566406 L 451.554688 34.566406 Z M 451.554688 17.285156 " fill-opacity="1" fill-rule="nonzero"/></g><g clip-path="url(#83e3ff7543)"><path fill="#097d4c" d="M 468.839844 0 L 486.121094 0 L 486.121094 17.285156 L 468.839844 17.285156 Z M 468.839844 0 " fill-opacity="1" fill-rule="nonzero"/></g><g clip-path="url(#e166b2c26d)"><path fill="#097d4c" d="M 572.289062 0 L 589.574219 0 L 589.574219 17.285156 L 572.289062 17.285156 Z M 572.289062 0 " fill-opacity="1" fill-rule="nonzero"/></g><g clip-path="url(#bb80bcadad)"><path fill="#097d4c" d="M 486.121094 17.285156 L 503.40625 17.285156 L 503.40625 34.566406 L 486.121094 34.566406 Z M 486.121094 17.285156 " fill-opacity="1" fill-rule="nonzero"/></g><g clip-path="url(#5b3a529116)"><path fill="#097d4c" d="M 589.574219 17.285156 L 606.855469 17.285156 L 606.855469 34.566406 L 589.574219 34.566406 Z M 589.574219 17.285156 " fill-opacity="1" fill-rule="nonzero"/></g><g clip-path="url(#286b841ece)"><path fill="#097d4c" d="M 503.40625 0 L 520.691406 0 L 520.691406 17.285156 L 503.40625 17.285156 Z M 503.40625 0 " fill-opacity="1" fill-rule="nonzero"/></g><g clip-path="url(#7fce8d4e1e)"><path fill="#097d4c" d="M 606.855469 0 L 624.140625 0 L 624.140625 17.285156 L 606.855469 17.285156 Z M 606.855469 0 " fill-opacity="1" fill-rule="nonzero"/></g><g clip-path="url(#4ee913e899)"><path fill="#097d4c" d="M 675.738281 0 L 693.023438 0 L 693.023438 17.285156 L 675.738281 17.285156 Z M 675.738281 0 " fill-opacity="1" fill-rule="nonzero"/></g><g clip-path="url(#5ed7f57d16)"><path fill="#097d4c" d="M 520.691406 17.285156 L 537.972656 17.285156 L 537.972656 34.566406 L 520.691406 34.566406 Z M 520.691406 17.285156 " fill-opacity="1" fill-rule="nonzero"/></g><g clip-path="url(#441b8a3f39)"><path fill="#097d4c" d="M 624.140625 17.285156 L 641.425781 17.285156 L 641.425781 34.566406 L 624.140625 34.566406 Z M 624.140625 17.285156 " fill-opacity="1" fill-rule="nonzero"/></g><g clip-path="url(#9da0b30e02)"><path fill="#097d4c" d="M 693.023438 17.285156 L 710.308594 17.285156 L 710.308594 34.566406 L 693.023438 34.566406 Z M 693.023438 17.285156 " fill-opacity="1" fill-rule="nonzero"/></g><g clip-path="url(#0f6c116eae)"><path fill="#097d4c" d="M 537.972656 0 L 555.257812 0 L 555.257812 17.285156 L 537.972656 17.285156 Z M 537.972656 0 " fill-opacity="1" fill-rule="nonzero"/></g><g clip-path="url(#e8f8260356)"><path fill="#097d4c" d="M 641.425781 0 L 658.707031 0 L 658.707031 17.285156 L 641.425781 17.285156 Z M 641.425781 0 " fill-opacity="1" fill-rule="nonzero"/></g><g clip-path="url(#96cf8ab637)"><path fill="#097d4c" d="M 710.308594 0 L 727.589844 0 L 727.589844 17.285156 L 710.308594 17.285156 Z M 710.308594 0 " fill-opacity="1" fill-rule="nonzero"/></g><g clip-path="url(#bdf2236119)"><path fill="#097d4c" d="M 555.257812 17.285156 L 572.539062 17.285156 L 572.539062 34.566406 L 555.257812 34.566406 Z M 555.257812 17.285156 " fill-opacity="1" fill-rule="nonzero"/></g><g clip-path="url(#45b435f673)"><path fill="#097d4c" d="M 658.707031 17.285156 L 675.992188 17.285156 L 675.992188 34.566406 L 658.707031 34.566406 Z M 658.707031 17.285156 " fill-opacity="1" fill-rule="nonzero"/></g><g clip-path="url(#63b2ccc667)"><path fill="#097d4c" d="M 712.410156 0 L 729.691406 0 L 729.691406 17.285156 L 712.410156 17.285156 Z M 712.410156 0 " fill-opacity="1" fill-rule="nonzero"/></g><g clip-path="url(#a846ee23c9)"><path fill="#097d4c" d="M 729.691406 17.285156 L 746.976562 17.285156 L 746.976562 34.566406 L 729.691406 34.566406 Z M 729.691406 17.285156 " fill-opacity="1" fill-rule="nonzero"/></g><g clip-path="url(#cd65575537)"><path fill="#097d4c" d="M 746.976562 0 L 764.261719 0 L 764.261719 17.285156 L 746.976562 17.285156 Z M 746.976562 0 " fill-opacity="1" fill-rule="nonzero"/></g><g clip-path="url(#1534b06415)"><path fill="#097d4c" d="M 764.261719 17.285156 L 781.542969 17.285156 L 781.542969 34.566406 L 764.261719 34.566406 Z M 764.261719 17.285156 " fill-opacity="1" fill-rule="nonzero"/></g><g clip-path="url(#33507d50b8)"><path fill="#097d4c" d="M 781.542969 0 L 798.828125 0 L 798.828125 17.285156 L 781.542969 17.285156 Z M 781.542969 0 " fill-opacity="1" fill-rule="nonzero"/></g><g clip-path="url(#260fe8593b)"><path fill="#097d4c" d="M 798.828125 17.285156 L 816.113281 17.285156 L 816.113281 34.566406 L 798.828125 34.566406 Z M 798.828125 17.285156 " fill-opacity="1" fill-rule="nonzero"/></g><g clip-path="url(#e04b35bf92)"><path fill="#097d4c" d="M 816.109375 0 L 833.394531 0 L 833.394531 17.285156 L 816.109375 17.285156 Z M 816.109375 0 " fill-opacity="1" fill-rule="nonzero"/></g><g clip-path="url(#bbf3152df8)"><path fill="#097d4c" d="M 833.394531 17.285156 L 850.679688 17.285156 L 850.679688 34.566406 L 833.394531 34.566406 Z M 833.394531 17.285156 " fill-opacity="1" fill-rule="nonzero"/></g><g clip-path="url(#7444b652d7)"><path fill="#097d4c" d="M 850.679688 0 L 867.960938 0 L 867.960938 17.285156 L 850.679688 17.285156 Z M 850.679688 0 " fill-opacity="1" fill-rule="nonzero"/></g><g clip-path="url(#016a5c8adc)"><path fill="#097d4c" d="M 867.960938 17.285156 L 885.246094 17.285156 L 885.246094 34.566406 L 867.960938 34.566406 Z M 867.960938 17.285156 " fill-opacity="1" fill-rule="nonzero"/></g><g clip-path="url(#fbc9dae529)"><path fill="#097d4c" d="M 885.246094 0 L 902.53125 0 L 902.53125 17.285156 L 885.246094 17.285156 Z M 885.246094 0 " fill-opacity="1" fill-rule="nonzero"/></g><g clip-path="url(#e1b1ed734f)"><path fill="#097d4c" d="M 902.53125 17.285156 L 919.8125 17.285156 L 919.8125 34.566406 L 902.53125 34.566406 Z M 902.53125 17.285156 " fill-opacity="1" fill-rule="nonzero"/></g><g clip-path="url(#9e5d9bcb55)"><path fill="#097d4c" d="M 919.8125 0 L 937.097656 0 L 937.097656 17.285156 L 919.8125 17.285156 Z M 919.8125 0 " fill-opacity="1" fill-rule="nonzero"/></g><g clip-path="url(#d169d31b5f)"><path fill="#097d4c" d="M 937.097656 17.285156 L 954.382812 17.285156 L 954.382812 34.566406 L 937.097656 34.566406 Z M 937.097656 17.285156 " fill-opacity="1" fill-rule="nonzero"/></g><g clip-path="url(#56d7bc4284)"><path fill="#097d4c" d="M 954.382812 0 L 971.664062 0 L 971.664062 17.285156 L 954.382812 17.285156 Z M 954.382812 0 " fill-opacity="1" fill-rule="nonzero"/></g><g clip-path="url(#364630c024)"><path fill="#097d4c" d="M 971.664062 17.285156 L 988.949219 17.285156 L 988.949219 34.566406 L 971.664062 34.566406 Z M 971.664062 17.285156 " fill-opacity="1" fill-rule="nonzero"/></g><g clip-path="url(#d54982dc10)"><path fill="#097d4c" d="M 988.949219 0 L 1006.234375 0 L 1006.234375 17.285156 L 988.949219 17.285156 Z M 988.949219 0 " fill-opacity="1" fill-rule="nonzero"/></g><g clip-path="url(#cce5e17508)"><path fill="#097d4c" d="M 1006.234375 17.285156 L 1023.515625 17.285156 L 1023.515625 34.566406 L 1006.234375 34.566406 Z M 1006.234375 17.285156 " fill-opacity="1" fill-rule="nonzero"/></g><g clip-path="url(#4630089560)"><path fill="#097d4c" d="M 1023.515625 0 L 1040.800781 0 L 1040.800781 17.285156 L 1023.515625 17.285156 Z M 1023.515625 0 " fill-opacity="1" fill-rule="nonzero"/></g><g clip-path="url(#4b78a5b4cc)"><path fill="#097d4c" d="M 1040.800781 17.285156 L 1058.085938 17.285156 L 1058.085938 34.566406 L 1040.800781 34.566406 Z M 1040.800781 17.285156 " fill-opacity="1" fill-rule="nonzero"/></g><g clip-path="url(#9fa2d32bfc)"><path fill="#097d4c" d="M 1058.085938 0 L 1075.367188 0 L 1075.367188 17.285156 L 1058.085938 17.285156 Z M 1058.085938 0 " fill-opacity="1" fill-rule="nonzero"/></g><g clip-path="url(#a712239e44)"><path fill="#097d4c" d="M 1075.367188 17.285156 L 1092.652344 17.285156 L 1092.652344 34.566406 L 1075.367188 34.566406 Z M 1075.367188 17.285156 " fill-opacity="1" fill-rule="nonzero"/></g><g clip-path="url(#ca6ebace31)"><path fill="#097d4c" d="M 1092.652344 0 L 1109.9375 0 L 1109.9375 17.285156 L 1092.652344 17.285156 Z M 1092.652344 0 " fill-opacity="1" fill-rule="nonzero"/></g><g clip-path="url(#771335d423)"><path fill="#097d4c" d="M 1109.9375 17.285156 L 1127.21875 17.285156 L 1127.21875 34.566406 L 1109.9375 34.566406 Z M 1109.9375 17.285156 " fill-opacity="1" fill-rule="nonzero"/></g><g clip-path="url(#169c9fe8ed)"><path fill="#097d4c" d="M 1127.21875 0 L 1144.503906 0 L 1144.503906 17.285156 L 1127.21875 17.285156 Z M 1127.21875 0 " fill-opacity="1" fill-rule="nonzero"/></g><g clip-path="url(#9ad8807335)"><path fill="#097d4c" d="M 1144.503906 17.285156 L 1161.789062 17.285156 L 1161.789062 34.566406 L 1144.503906 34.566406 Z M 1144.503906 17.285156 " fill-opacity="1" fill-rule="nonzero"/></g><g clip-path="url(#754ab188ab)"><path fill="#097d4c" d="M 1161.789062 0 L 1179.070312 0 L 1179.070312 17.285156 L 1161.789062 17.285156 Z M 1161.789062 0 " fill-opacity="1" fill-rule="nonzero"/></g><g clip-path="url(#06a35d8681)"><path fill="#097d4c" d="M 1265.238281 0 L 1282.523438 0 L 1282.523438 17.285156 L 1265.238281 17.285156 Z M 1265.238281 0 " fill-opacity="1" fill-rule="nonzero"/></g><g clip-path="url(#cbf37794f0)"><path fill="#097d4c" d="M 1179.070312 17.285156 L 1196.355469 17.285156 L 1196.355469 34.566406 L 1179.070312 34.566406 Z M 1179.070312 17.285156 " fill-opacity="1" fill-rule="nonzero"/></g><g clip-path="url(#f8e9edaa65)"><path fill="#097d4c" d="M 1282.523438 17.285156 L 1299.804688 17.285156 L 1299.804688 34.566406 L 1282.523438 34.566406 Z M 1282.523438 17.285156 " fill-opacity="1" fill-rule="nonzero"/></g><g clip-path="url(#0833d66bd0)"><path fill="#097d4c" d="M 1196.355469 0 L 1213.636719 0 L 1213.636719 17.285156 L 1196.355469 17.285156 Z M 1196.355469 0 " fill-opacity="1" fill-rule="nonzero"/></g><g clip-path="url(#075501f831)"><path fill="#097d4c" d="M 1299.804688 0 L 1317.089844 0 L 1317.089844 17.285156 L 1299.804688 17.285156 Z M 1299.804688 0 " fill-opacity="1" fill-rule="nonzero"/></g><g clip-path="url(#0bd611f526)"><path fill="#097d4c" d="M 1368.6875 0 L 1385.972656 0 L 1385.972656 17.285156 L 1368.6875 17.285156 Z M 1368.6875 0 " fill-opacity="1" fill-rule="nonzero"/></g><g clip-path="url(#7e4ddc6de5)"><path fill="#097d4c" d="M 1213.636719 17.285156 L 1230.921875 17.285156 L 1230.921875 34.566406 L 1213.636719 34.566406 Z M 1213.636719 17.285156 " fill-opacity="1" fill-rule="nonzero"/></g><g clip-path="url(#05c3a8d0f3)"><path fill="#097d4c" d="M 1317.089844 17.285156 L 1334.375 17.285156 L 1334.375 34.566406 L 1317.089844 34.566406 Z M 1317.089844 17.285156 " fill-opacity="1" fill-rule="nonzero"/></g><g clip-path="url(#2d584e3c4e)"><path fill="#097d4c" d="M 1385.972656 17.285156 L 1403.257812 17.285156 L 1403.257812 34.566406 L 1385.972656 34.566406 Z M 1385.972656 17.285156 " fill-opacity="1" fill-rule="nonzero"/></g><g clip-path="url(#b4d306edaa)"><path fill="#097d4c" d="M 1230.921875 0 L 1248.207031 0 L 1248.207031 17.285156 L 1230.921875 17.285156 Z M 1230.921875 0 " fill-opacity="1" fill-rule="nonzero"/></g><g clip-path="url(#cc98a0da87)"><path fill="#097d4c" d="M 1334.375 0 L 1351.65625 0 L 1351.65625 17.285156 L 1334.375 17.285156 Z M 1334.375 0 " fill-opacity="1" fill-rule="nonzero"/></g><g clip-path="url(#a988009ee9)"><path fill="#097d4c" d="M 1403.257812 0 L 1420.539062 0 L 1420.539062 17.285156 L 1403.257812 17.285156 Z M 1403.257812 0 " fill-opacity="1" fill-rule="nonzero"/></g><g clip-path="url(#9425752788)"><path fill="#097d4c" d="M 1248.207031 17.285156 L 1265.488281 17.285156 L 1265.488281 34.566406 L 1248.207031 34.566406 Z M 1248.207031 17.285156 " fill-opacity="1" fill-rule="nonzero"/></g><g clip-path="url(#080a9f2c27)"><path fill="#097d4c" d="M 1351.65625 17.285156 L 1368.941406 17.285156 L 1368.941406 34.566406 L 1351.65625 34.566406 Z M 1351.65625 17.285156 " fill-opacity="1" fill-rule="nonzero"/></g></svg>